<svg width="100" height="100" viewBox="0 0 100 100" fill="none" xmlns="http://www.w3.org/2000/svg">
<rect width="100" height="100" rx="20" fill="#1A6F54"/>
<path d="M77.05 63.25V40.75H69.55V37H92.05V40.75H84.55V63.25H77.05Z" fill="#93FFDC"/>
<path d="M40.4 63.25V37H59.15V40.75H62.9V44.5H66.65V55.75H62.9V59.5H59.15V63.25H40.4ZM47.9 59.5H55.4V55.75H59.15V44.5H55.4V40.75H47.9V59.5Z" fill="#93FFDC"/>
<path d="M15.5 63.25V59.5H11.75V55.75H8V44.5H11.75V40.75H15.5V37H34.25V40.75H19.25V44.5H15.5V55.75H19.25V59.5H26.75V52H23V48.25H34.25V63.25H15.5Z" fill="#93FFDC"/>
</svg>
